<?xml version="1.0" encoding="utf-8"?>
<!-- Generator: Adobe Illustrator 24.1.1, SVG Export Plug-In . SVG Version: 6.00 Build 0)  -->
<svg version="1.1" id="Layer_1" xmlns="http://www.w3.org/2000/svg" xmlns:xlink="http://www.w3.org/1999/xlink" x="0px" y="0px"
	 viewBox="0 0 512 512" style="enable-background:new 0 0 512 512;" xml:space="preserve">
<g>
	<path d="M132.52,97.67l-128,146.29c-6.03,6.89-6.03,17.19,0,24.08l128,146.29c6.65,7.6,18.2,8.37,25.8,1.72
		c7.6-6.65,8.37-18.2,1.72-25.8L42.58,256l117.46-134.24c6.65-7.6,5.88-19.15-1.72-25.8C150.73,89.3,139.17,90.07,132.52,97.67
		L132.52,97.67z M351.95,121.76L469.42,256L351.95,390.24c-6.65,7.6-5.88,19.15,1.72,25.8c7.6,6.65,19.15,5.88,25.8-1.72l128-146.29
		c6.03-6.89,6.03-17.19,0-24.08l-128-146.29c-6.65-7.6-18.2-8.37-25.8-1.72C346.07,102.6,345.3,114.16,351.95,121.76L351.95,121.76z
		 M274.64,69.56L201.5,435.27c-1.98,9.9,4.44,19.54,14.34,21.52c9.9,1.98,19.54-4.44,21.52-14.34L310.5,76.73
		c1.98-9.9-4.44-19.54-14.34-21.52C286.25,53.23,276.62,59.65,274.64,69.56z"/>
</g>
</svg>
